<svg width="40" height="38" viewBox="0 0 40 38" fill="none" xmlns="http://www.w3.org/2000/svg">
<path d="M39.3837 27.423C38.9524 26.7538 38.4287 26.0847 37.8434 25.3753C37.3774 24.8697 36.9593 24.3346 36.5919 23.7755C35.1565 21.591 34.9176 18.8873 34.7042 16.2822L34.3779 12.2995C33.9928 6.18323 29.8804 0 21.7017 0H18.2824C10.1037 0 5.96044 6.18323 5.54457 12.2862L5.21188 16.354C5.00272 18.9115 4.76887 21.5605 3.38813 23.7233C3.00717 24.3201 2.56969 24.8906 2.07903 25.4289C1.93459 25.6208 1.79015 25.8087 1.64926 25.9928C0.967402 26.8837 0.122823 27.7741 0.0125292 28.8906C-0.0418923 29.4415 0.0816861 29.9947 0.369361 30.4879C0.704997 31.0058 1.19945 31.4327 1.7977 31.7209C2.39595 32.0092 3.07452 32.1476 3.75789 32.1207H13.713C14.6334 32.1207 15.2727 33.1074 15.4113 34.0173C15.5087 34.6568 15.782 35.2666 16.2082 35.7949C16.6343 36.3233 17.2007 36.7546 17.8594 37.0523C18.518 37.3501 19.2496 37.5056 19.992 37.5056C20.7345 37.5056 21.4661 37.3501 22.1247 37.0523C22.7834 36.7546 23.3498 36.3233 23.7759 35.7949C24.2021 35.2666 24.4754 34.6568 24.5728 34.0173C24.7114 33.1074 25.3507 32.1207 26.2711 32.1207H36.2262C36.9159 32.1424 37.5988 31.996 38.1976 31.698C38.7965 31.4 39.2874 30.9622 39.6147 30.4343C39.9026 29.9634 40.0335 29.4321 39.9927 28.9001C39.9519 28.3681 39.741 27.8565 39.3837 27.423ZM21.5323 33.459C21.5323 33.7237 21.442 33.9825 21.2727 34.2026C21.1035 34.4227 20.8629 34.5942 20.5815 34.6955C20.3 34.7968 19.9903 34.8233 19.6916 34.7717C19.3928 34.72 19.1183 34.5926 18.9029 34.4054C18.6875 34.2182 18.5408 33.9797 18.4814 33.7201C18.422 33.4605 18.4525 33.1914 18.569 32.9468C18.6856 32.7023 18.883 32.4933 19.1363 32.3462C19.3896 32.1992 19.6874 32.1207 19.992 32.1207C20.4005 32.1207 20.7923 32.2617 21.0812 32.5127C21.37 32.7636 21.5323 33.1041 21.5323 33.459ZM36.9536 29.0328C36.9803 29.1537 36.9218 29.2913 36.8109 29.3463C36.6979 29.4023 36.5141 29.4439 36.2878 29.4439H3.75789C3.37283 29.4439 3.1726 29.3235 3.11099 29.2164C3.04938 29.1093 3.11099 28.9621 3.26502 28.748C3.68088 28.1323 4.15836 27.4899 4.65123 26.8475C6.19148 24.9203 7.73172 22.7254 7.96275 20.3832L8.62506 12.4735C8.94851 7.94986 11.6747 2.67672 18.2824 2.67672H21.7017C28.3093 2.67672 31.0356 7.94986 31.359 12.4869L32.0213 20.3832C32.2062 22.7521 33.8542 24.9203 35.3945 26.8475C35.8496 27.4408 36.2917 28.0797 36.7448 28.7116C36.8197 28.816 36.9258 28.9074 36.9536 29.0328Z" fill="black"/>
</svg>
