<svg viewBox="0 0 221 221" fill="none" xmlns="http://www.w3.org/2000/svg">
  <path fill-rule="evenodd" clip-rule="evenodd" d="M110.622 116.975L183.231 44.3657C185.518 42.0784 188.701 40.9071 191.927 41.1723C195.154 41.4264 198.104 43.084 200.005 45.7139C200.005 45.7139 200.281 46.1117 200.303 46.1338C213.32 64.2668 221 86.4883 221 110.5C221 171.485 171.485 221 110.5 221C49.515 221 0 171.485 0 110.5C0 49.515 49.515 0 110.5 0C128.136 0 144.821 4.14375 159.617 11.5141C165.087 14.2214 167.308 20.8624 164.59 26.3211C161.871 31.7798 155.241 34.0119 149.783 31.2936C137.948 25.4039 124.6 22.1 110.5 22.1C61.7143 22.1 22.1 61.7143 22.1 110.5C22.1 159.286 61.7143 198.9 110.5 198.9C159.286 198.9 198.9 159.286 198.9 110.5C198.9 95.8477 195.331 82.0131 188.999 69.8471L118.445 140.412C114.124 144.733 107.13 144.733 102.809 140.412L69.6592 107.262C65.3497 102.953 65.3497 95.9472 69.6592 91.6377C73.9798 87.3282 80.9744 87.3282 85.295 91.6377L110.622 116.975Z" fill="#254996" />
</svg>