<svg width="40" height="40" viewBox="0 0 40 40" fill="none" xmlns="http://www.w3.org/2000/svg">
<path d="M30.1314 0.0159605C35.2744 0.0651719 39.9159 4.51991 39.9665 9.84317C39.9883 16.6135 40.03 23.3838 39.9656 30.1533C39.8849 35.2438 35.459 39.8666 30.1314 39.9171C23.3557 39.9388 16.5799 39.9805 9.805 39.9162C4.7113 39.8355 0.0843809 35.4131 0.0333552 30.0899C0.0120576 23.3196 -0.0300941 16.5492 0.0342427 9.77977C0.114996 4.68927 4.54092 0.0669452 9.86845 0.0159605C16.6229 -0.00532015 23.3769 -0.00532015 30.1314 0.0159605ZM9.93456 2.67604C6.18084 2.68801 2.73328 5.90625 2.69557 9.86001C2.67427 16.6135 2.63167 23.367 2.69601 30.1196C2.75502 33.8362 5.98606 37.2198 9.88531 37.257C16.6442 37.2787 23.4031 37.3204 30.1611 37.2566C33.8829 37.1972 37.267 33.9692 37.3043 30.073C37.326 23.3196 37.3678 16.5661 37.3039 9.81346C37.2444 6.09512 34.0187 2.71328 30.1146 2.67604C23.388 2.65476 16.6611 2.67604 9.93456 2.67604Z" fill="black"/>
<path d="M20.11 5.5202C24.9593 5.61197 29.1713 10.3394 28.48 15.2707C27.9143 19.3034 24.0998 22.6325 19.9996 22.6325C15.066 22.6325 10.6574 17.6612 11.5701 12.5632C12.2605 8.70519 15.8279 5.59734 19.8891 5.5202C19.9996 5.51931 19.9996 5.51931 20.11 5.5202ZM19.9232 8.17983C16.0235 8.25387 12.8546 12.8474 14.68 16.63C16.2796 19.9458 21.3094 20.9735 24.0696 18.3435C27.2962 15.2698 25.5902 8.2849 20.0759 8.17983C19.9996 8.17938 19.9996 8.17938 19.9232 8.17983ZM20.1318 24.4063C25.3803 24.4786 30.4376 27.5975 32.7755 32.4007C33.2676 33.4115 32.2719 34.7713 31.1351 34.3199C30.2917 33.9848 30.0627 32.876 29.5218 32.0877C26.2566 27.3279 19.1823 25.6556 14.1001 28.6872C12.5487 29.6125 11.2301 30.9077 10.258 32.4293C9.75227 33.2209 9.37406 34.3675 8.4358 34.4126C7.39221 34.4623 6.72977 33.3122 7.44901 31.9578C9.86097 27.4135 14.8424 24.3823 20.1318 24.4063Z" fill="black"/>
</svg>
