<svg width="42" height="48" viewBox="0 0 42 48" fill="none" xmlns="http://www.w3.org/2000/svg">
<g clip-path="url(#clip0_243_524)">
<path d="M20.801 0C16.7217 0 12.734 1.40024 9.34224 4.02366C5.95044 6.64708 3.30686 10.3758 1.74579 14.7384C0.184718 19.101 -0.22373 23.9015 0.572098 28.5328C1.36793 33.1641 3.33228 37.4182 6.21677 40.7572C9.10125 44.0962 12.7763 46.37 16.7772 47.2912C20.7781 48.2125 24.9251 47.7397 28.6939 45.9326C32.4627 44.1256 35.6839 41.0655 37.9502 37.1392C40.2165 33.213 41.4262 28.597 41.4262 23.875C41.4197 17.5453 39.2446 11.4769 35.378 7.00111C31.5115 2.52531 26.2691 0.00750321 20.801 0ZM20.801 44.7656C17.2316 44.7656 13.7424 43.5404 10.7746 41.2449C7.80676 38.9494 5.49363 35.6868 4.12769 31.8695C2.76175 28.0522 2.40436 23.8518 3.10071 19.7994C3.79706 15.7471 5.51587 12.0247 8.0398 9.1031C10.5637 6.18149 13.7794 4.19185 17.2802 3.38578C20.781 2.57971 24.4096 2.99342 27.7073 4.57458C31.005 6.15574 33.8235 8.83334 35.8066 12.2688C37.7896 15.7042 38.848 19.7432 38.848 23.875C38.8429 29.4137 36.9399 34.7239 33.5565 38.6404C30.1731 42.5568 25.5858 44.7597 20.801 44.7656Z" fill="black"/>
<path d="M20.8009 8.95313C18.7502 8.9555 16.7841 9.89953 15.334 11.5781C13.884 13.2566 13.0685 15.5325 13.0664 17.9063H15.6446C15.6446 16.3232 16.1878 14.8051 17.1548 13.6857C18.1218 12.5663 19.4333 11.9375 20.8009 11.9375C22.0394 11.9361 23.2369 12.4507 24.1746 13.3874C25.1122 14.324 25.7273 15.62 25.9074 17.0384C26.0875 18.4568 25.8205 19.9029 25.1553 21.1122C24.4901 22.3215 23.4711 23.2132 22.2846 23.6243C21.4844 23.8938 20.7814 24.4568 20.2814 25.2286C19.7813 26.0004 19.5113 26.9392 19.5118 27.9039V32.8281H22.0899V27.9039C22.0924 27.5817 22.1848 27.269 22.3535 27.0127C22.5222 26.7564 22.7581 26.5701 23.0258 26.4819C24.8044 25.8642 26.3318 24.5265 27.3287 22.713C28.3257 20.8996 28.7257 18.7314 28.4558 16.6047C28.1858 14.478 27.2639 12.5347 25.8585 11.1299C24.453 9.72503 22.6578 8.95239 20.8009 8.95313Z" fill="black"/>
</g>
<defs>
<clipPath id="clip0_243_524">
<rect x="0.175781" width="41.2504" height="47.75" rx="20.6252" fill="white"/>
</clipPath>
</defs>
</svg>
