<svg width="45" height="52" viewBox="0 0 45 52" fill="none" xmlns="http://www.w3.org/2000/svg">
<path d="M40.0936 22.4369H40.0952C41.2672 22.4369 42.3744 22.8082 43.176 23.4457C43.9747 24.0809 44.3922 24.9146 44.3922 25.752V36.2436C44.3922 40.1165 42.4585 43.8614 38.9609 46.6431C35.4618 49.4259 30.6965 51.0029 25.7099 51.0041C22.3588 50.9257 19.0968 50.1513 16.2485 48.7631C13.3984 47.374 11.0696 45.4227 9.48233 43.1137L9.47384 43.1014L9.46463 43.0896L0.914994 32.1225C0.914858 32.1223 0.914723 32.1221 0.914588 32.122C0.546607 31.6462 0.42516 31.1001 0.544143 30.581C0.664415 30.0563 1.03235 29.5541 1.62107 29.1918L1.6211 29.1919L1.62745 29.1878L2.46547 28.6546C2.46562 28.6546 2.46577 28.6545 2.46591 28.6544C3.57236 27.9559 4.98946 27.6141 6.42276 27.7154C7.85645 27.8168 9.16681 28.3515 10.0902 29.1846C11.6737 30.6219 14.2114 29.4984 14.2114 27.3594V9.68086H14.2116L14.2113 9.66855C14.1929 8.92056 14.4982 8.17091 15.1111 7.54902C15.7258 6.92529 16.6092 6.47395 17.6218 6.29177C18.2602 6.18722 18.9204 6.19694 19.553 6.32003C20.1869 6.44338 20.7721 6.67641 21.267 6.99724C21.762 7.31803 22.1505 7.71581 22.4128 8.15545C22.6746 8.5941 22.8059 9.06572 22.8055 9.53734V9.53779V16.1787C22.8055 16.9497 23.2274 17.5715 23.7738 17.9821C24.3169 18.3902 25.0219 18.6237 25.7039 18.6218C26.6164 18.6256 27.4974 18.8548 28.2247 19.2686C29.4811 19.9835 31.1956 20.5803 32.708 20.5321C32.7712 20.5301 32.8346 20.5292 32.898 20.5294C33.8111 20.5329 34.6926 20.7622 35.4202 21.1762C36.6766 21.8911 38.3912 22.4878 39.9036 22.4396C39.9668 22.4376 40.0301 22.4367 40.0936 22.4369ZM25.6907 50.0964L25.6907 50.0965H25.704C30.2572 50.0965 34.6407 48.659 37.8873 46.0769C41.1369 43.4925 42.9937 39.9594 42.9937 36.2436V25.752C42.9937 25.0717 42.6531 24.4499 42.1024 24.0119C41.5546 23.5762 40.8315 23.3445 40.0952 23.3445C39.3588 23.3445 38.6358 23.5762 38.0879 24.0119C37.5372 24.4499 37.1967 25.0717 37.1967 25.752V28.6134C37.1967 28.6919 37.1582 28.7979 37.0342 28.8965C36.9073 28.9974 36.7152 29.0672 36.4974 29.0672C36.2796 29.0672 36.0875 28.9974 35.9606 28.8965C35.8366 28.7979 35.7981 28.6919 35.7981 28.6134V23.8445C35.7981 23.1642 35.4576 22.5423 34.9068 22.1043C34.359 21.6686 33.636 21.4369 32.8996 21.4369C32.1633 21.4369 31.4402 21.6686 30.8924 22.1043C30.3416 22.5423 30.0011 23.1642 30.0011 23.8445V28.6134C30.0011 28.6919 29.9626 28.7979 29.8386 28.8965C29.7117 28.9974 29.5197 29.0672 29.3018 29.0672C29.084 29.0672 28.8919 28.9974 28.765 28.8965C28.6411 28.7979 28.6026 28.6919 28.6026 28.6134V21.9369C28.6026 21.2566 28.262 20.6348 27.7113 20.1967C27.1635 19.7611 26.4404 19.5294 25.704 19.5294C24.9677 19.5294 24.2446 19.7611 23.6968 20.1967C23.1461 20.6348 22.8055 21.2566 22.8055 21.9369V28.6134C22.8055 28.6919 22.767 28.7979 22.643 28.8965C22.5161 28.9974 22.3241 29.0672 22.1063 29.0672C21.8884 29.0672 21.6964 28.9974 21.5695 28.8965C21.4455 28.7979 21.407 28.6919 21.407 28.6134V9.54235C21.4128 9.20178 21.3323 8.86765 21.1755 8.56122C21.0186 8.25451 20.7901 7.98468 20.511 7.76373C20.1668 7.48784 19.7502 7.29136 19.3022 7.18429C18.8534 7.07701 18.3799 7.061 17.9228 7.13701L17.9127 7.13868L17.9027 7.14076C17.2515 7.27656 16.6583 7.58984 16.2337 8.04942C15.81 8.50795 15.5787 9.088 15.61 9.6946L15.61 34.3352C15.61 34.3353 15.61 34.3354 15.61 34.3355C15.6098 34.3975 15.5866 34.4724 15.5195 34.5494L15.8966 34.8778L15.5195 34.5494C15.4505 34.6286 15.3394 34.7035 15.1902 34.7482C15.0416 34.7928 14.8757 34.8009 14.7183 34.7698C14.5609 34.7386 14.4333 34.6727 14.3466 34.5947C14.3464 34.5945 14.3463 34.5944 14.3461 34.5942L8.96282 29.7026L8.96147 29.7014C8.25992 29.0686 7.30004 28.689 6.28621 28.6164C5.272 28.5438 4.25108 28.7815 3.4316 29.2964L3.42921 29.2979L2.58972 29.832L2.58971 29.832L2.58633 29.8342C2.28592 30.0288 2.05431 30.3229 1.97545 30.6813C1.89552 31.0446 1.98754 31.4088 2.20728 31.6997L2.20726 31.6998L2.21076 31.7043L10.7282 42.718C12.2126 44.8952 14.3771 46.7133 16.9964 48.0026C19.6209 49.2945 22.6181 50.0145 25.6907 50.0964ZM19.0453 4.09821C18.9184 4.19913 18.7263 4.2689 18.5085 4.2689C18.2906 4.2689 18.0986 4.19913 17.9717 4.09821C17.8477 3.99961 17.8092 3.89368 17.8092 3.81512V0.953779C17.8092 0.875217 17.8477 0.769289 17.9717 0.670685C18.0986 0.569765 18.2906 0.5 18.5085 0.5C18.7263 0.5 18.9184 0.569766 19.0453 0.670685C19.1692 0.769289 19.2077 0.875217 19.2077 0.953779V3.81512C19.2077 3.89368 19.1692 3.99961 19.0453 4.09821Z" fill="black"/>
<path d="M40.0936 22.4369H40.0952C41.2672 22.4369 42.3744 22.8082 43.176 23.4457C43.9747 24.0809 44.3922 24.9146 44.3922 25.752V36.2436C44.3922 40.1165 42.4585 43.8614 38.9609 46.6431C35.4618 49.4259 30.6965 51.0029 25.7099 51.0041C22.3588 50.9257 19.0968 50.1513 16.2485 48.7631C13.3984 47.374 11.0696 45.4227 9.48233 43.1137L9.47384 43.1014L9.46463 43.0896L0.914994 32.1225C0.914858 32.1223 0.914723 32.1221 0.914588 32.122C0.546607 31.6462 0.42516 31.1001 0.544143 30.581C0.664415 30.0563 1.03235 29.5541 1.62107 29.1918L1.6211 29.1919L1.62745 29.1878L2.46547 28.6546C2.46562 28.6546 2.46577 28.6545 2.46591 28.6544C3.57236 27.9559 4.98946 27.6141 6.42276 27.7154C7.85645 27.8168 9.16681 28.3515 10.0902 29.1846C11.6737 30.6219 14.2114 29.4984 14.2114 27.3594V9.68086H14.2116L14.2113 9.66855C14.1929 8.92056 14.4982 8.17091 15.1111 7.54902C15.7258 6.92529 16.6092 6.47395 17.6218 6.29177C18.2602 6.18722 18.9204 6.19694 19.553 6.32003C20.1869 6.44338 20.7721 6.67641 21.267 6.99724C21.762 7.31803 22.1505 7.71581 22.4128 8.15545C22.6746 8.5941 22.8059 9.06572 22.8055 9.53734V9.53779V16.1787C22.8055 16.9497 23.2274 17.5715 23.7738 17.9821C24.3169 18.3902 25.0219 18.6237 25.7039 18.6218C26.6164 18.6256 27.4974 18.8548 28.2247 19.2686C29.4811 19.9835 31.1956 20.5803 32.708 20.5321C32.7712 20.5301 32.8346 20.5292 32.898 20.5294C33.8111 20.5329 34.6926 20.7622 35.4202 21.1762C36.6766 21.8911 38.3912 22.4878 39.9036 22.4396C39.9668 22.4376 40.0301 22.4367 40.0936 22.4369ZM25.6907 50.0964L25.6907 50.0965H25.704C30.2572 50.0965 34.6407 48.659 37.8873 46.0769C41.1369 43.4925 42.9937 39.9594 42.9937 36.2436V25.752C42.9937 25.0717 42.6531 24.4499 42.1024 24.0119C41.5546 23.5762 40.8315 23.3445 40.0952 23.3445C39.3588 23.3445 38.6358 23.5762 38.0879 24.0119C37.5372 24.4499 37.1967 25.0717 37.1967 25.752V28.6134C37.1967 28.6919 37.1582 28.7979 37.0342 28.8965C36.9073 28.9974 36.7152 29.0672 36.4974 29.0672C36.2796 29.0672 36.0875 28.9974 35.9606 28.8965C35.8366 28.7979 35.7981 28.6919 35.7981 28.6134V23.8445C35.7981 23.1642 35.4576 22.5423 34.9068 22.1043C34.359 21.6686 33.636 21.4369 32.8996 21.4369C32.1633 21.4369 31.4402 21.6686 30.8924 22.1043C30.3416 22.5423 30.0011 23.1642 30.0011 23.8445V28.6134C30.0011 28.6919 29.9626 28.7979 29.8386 28.8965C29.7117 28.9974 29.5197 29.0672 29.3018 29.0672C29.084 29.0672 28.8919 28.9974 28.765 28.8965C28.6411 28.7979 28.6026 28.6919 28.6026 28.6134V21.9369C28.6026 21.2566 28.262 20.6348 27.7113 20.1967C27.1635 19.7611 26.4404 19.5294 25.704 19.5294C24.9677 19.5294 24.2446 19.7611 23.6968 20.1967C23.1461 20.6348 22.8055 21.2566 22.8055 21.9369V28.6134C22.8055 28.6919 22.767 28.7979 22.643 28.8965C22.5161 28.9974 22.3241 29.0672 22.1063 29.0672C21.8884 29.0672 21.6964 28.9974 21.5695 28.8965C21.4455 28.7979 21.407 28.6919 21.407 28.6134V9.54235C21.4128 9.20178 21.3323 8.86765 21.1755 8.56122C21.0186 8.25451 20.7901 7.98468 20.511 7.76373C20.1668 7.48784 19.7502 7.29136 19.3022 7.18429C18.8534 7.07701 18.3799 7.061 17.9228 7.13701L17.9127 7.13868L17.9027 7.14076C17.2515 7.27656 16.6583 7.58984 16.2337 8.04942C15.81 8.50795 15.5787 9.088 15.61 9.6946L15.61 34.3352C15.61 34.3353 15.61 34.3354 15.61 34.3355C15.6098 34.3975 15.5866 34.4724 15.5195 34.5494L15.8966 34.8778L15.5195 34.5494C15.4505 34.6286 15.3394 34.7035 15.1902 34.7482C15.0416 34.7928 14.8757 34.8009 14.7183 34.7698C14.5609 34.7386 14.4333 34.6727 14.3466 34.5947C14.3464 34.5945 14.3463 34.5944 14.3461 34.5942L8.96282 29.7026L8.96147 29.7014C8.25992 29.0686 7.30004 28.689 6.28621 28.6164C5.272 28.5438 4.25108 28.7815 3.4316 29.2964L3.42921 29.2979L2.58972 29.832L2.58971 29.832L2.58633 29.8342C2.28592 30.0288 2.05431 30.3229 1.97545 30.6813C1.89552 31.0446 1.98754 31.4088 2.20728 31.6997L2.20726 31.6998L2.21076 31.7043L10.7282 42.718C12.2126 44.8952 14.3771 46.7133 16.9964 48.0026C19.6209 49.2945 22.6181 50.0145 25.6907 50.0964ZM19.0453 4.09821C18.9184 4.19913 18.7263 4.2689 18.5085 4.2689C18.2906 4.2689 18.0986 4.19913 17.9717 4.09821C17.8477 3.99961 17.8092 3.89368 17.8092 3.81512V0.953779C17.8092 0.875217 17.8477 0.769289 17.9717 0.670685C18.0986 0.569765 18.2906 0.5 18.5085 0.5C18.7263 0.5 18.9184 0.569766 19.0453 0.670685C19.1692 0.769289 19.2077 0.875217 19.2077 0.953779V3.81512C19.2077 3.89368 19.1692 3.99961 19.0453 4.09821Z" fill="black" fill-opacity="0.2"/>
<path d="M40.0936 22.4369H40.0952C41.2672 22.4369 42.3744 22.8082 43.176 23.4457C43.9747 24.0809 44.3922 24.9146 44.3922 25.752V36.2436C44.3922 40.1165 42.4585 43.8614 38.9609 46.6431C35.4618 49.4259 30.6965 51.0029 25.7099 51.0041C22.3588 50.9257 19.0968 50.1513 16.2485 48.7631C13.3984 47.374 11.0696 45.4227 9.48233 43.1137L9.47384 43.1014L9.46463 43.0896L0.914994 32.1225C0.914858 32.1223 0.914723 32.1221 0.914588 32.122C0.546607 31.6462 0.42516 31.1001 0.544143 30.581C0.664415 30.0563 1.03235 29.5541 1.62107 29.1918L1.6211 29.1919L1.62745 29.1878L2.46547 28.6546C2.46562 28.6546 2.46577 28.6545 2.46591 28.6544C3.57236 27.9559 4.98946 27.6141 6.42276 27.7154C7.85645 27.8168 9.16681 28.3515 10.0902 29.1846C11.6737 30.6219 14.2114 29.4984 14.2114 27.3594V9.68086H14.2116L14.2113 9.66855C14.1929 8.92056 14.4982 8.17091 15.1111 7.54902C15.7258 6.92529 16.6092 6.47395 17.6218 6.29177C18.2602 6.18722 18.9204 6.19694 19.553 6.32003C20.1869 6.44338 20.7721 6.67641 21.267 6.99724C21.762 7.31803 22.1505 7.71581 22.4128 8.15545C22.6746 8.5941 22.8059 9.06572 22.8055 9.53734V9.53779V16.1787C22.8055 16.9497 23.2274 17.5715 23.7738 17.9821C24.3169 18.3902 25.0219 18.6237 25.7039 18.6218C26.6164 18.6256 27.4974 18.8548 28.2247 19.2686C29.4811 19.9835 31.1956 20.5803 32.708 20.5321C32.7712 20.5301 32.8346 20.5292 32.898 20.5294C33.8111 20.5329 34.6926 20.7622 35.4202 21.1762C36.6766 21.8911 38.3912 22.4878 39.9036 22.4396C39.9668 22.4376 40.0301 22.4367 40.0936 22.4369ZM25.6907 50.0964L25.6907 50.0965H25.704C30.2572 50.0965 34.6407 48.659 37.8873 46.0769C41.1369 43.4925 42.9937 39.9594 42.9937 36.2436V25.752C42.9937 25.0717 42.6531 24.4499 42.1024 24.0119C41.5546 23.5762 40.8315 23.3445 40.0952 23.3445C39.3588 23.3445 38.6358 23.5762 38.0879 24.0119C37.5372 24.4499 37.1967 25.0717 37.1967 25.752V28.6134C37.1967 28.6919 37.1582 28.7979 37.0342 28.8965C36.9073 28.9974 36.7152 29.0672 36.4974 29.0672C36.2796 29.0672 36.0875 28.9974 35.9606 28.8965C35.8366 28.7979 35.7981 28.6919 35.7981 28.6134V23.8445C35.7981 23.1642 35.4576 22.5423 34.9068 22.1043C34.359 21.6686 33.636 21.4369 32.8996 21.4369C32.1633 21.4369 31.4402 21.6686 30.8924 22.1043C30.3416 22.5423 30.0011 23.1642 30.0011 23.8445V28.6134C30.0011 28.6919 29.9626 28.7979 29.8386 28.8965C29.7117 28.9974 29.5197 29.0672 29.3018 29.0672C29.084 29.0672 28.8919 28.9974 28.765 28.8965C28.6411 28.7979 28.6026 28.6919 28.6026 28.6134V21.9369C28.6026 21.2566 28.262 20.6348 27.7113 20.1967C27.1635 19.7611 26.4404 19.5294 25.704 19.5294C24.9677 19.5294 24.2446 19.7611 23.6968 20.1967C23.1461 20.6348 22.8055 21.2566 22.8055 21.9369V28.6134C22.8055 28.6919 22.767 28.7979 22.643 28.8965C22.5161 28.9974 22.3241 29.0672 22.1063 29.0672C21.8884 29.0672 21.6964 28.9974 21.5695 28.8965C21.4455 28.7979 21.407 28.6919 21.407 28.6134V9.54235C21.4128 9.20178 21.3323 8.86765 21.1755 8.56122C21.0186 8.25451 20.7901 7.98468 20.511 7.76373C20.1668 7.48784 19.7502 7.29136 19.3022 7.18429C18.8534 7.07701 18.3799 7.061 17.9228 7.13701L17.9127 7.13868L17.9027 7.14076C17.2515 7.27656 16.6583 7.58984 16.2337 8.04942C15.81 8.50795 15.5787 9.088 15.61 9.6946L15.61 34.3352C15.61 34.3353 15.61 34.3354 15.61 34.3355C15.6098 34.3975 15.5866 34.4724 15.5195 34.5494L15.8966 34.8778L15.5195 34.5494C15.4505 34.6286 15.3394 34.7035 15.1902 34.7482C15.0416 34.7928 14.8757 34.8009 14.7183 34.7698C14.5609 34.7386 14.4333 34.6727 14.3466 34.5947C14.3464 34.5945 14.3463 34.5944 14.3461 34.5942L8.96282 29.7026L8.96147 29.7014C8.25992 29.0686 7.30004 28.689 6.28621 28.6164C5.272 28.5438 4.25108 28.7815 3.4316 29.2964L3.42921 29.2979L2.58972 29.832L2.58971 29.832L2.58633 29.8342C2.28592 30.0288 2.05431 30.3229 1.97545 30.6813C1.89552 31.0446 1.98754 31.4088 2.20728 31.6997L2.20726 31.6998L2.21076 31.7043L10.7282 42.718C12.2126 44.8952 14.3771 46.7133 16.9964 48.0026C19.6209 49.2945 22.6181 50.0145 25.6907 50.0964ZM19.0453 4.09821C18.9184 4.19913 18.7263 4.2689 18.5085 4.2689C18.2906 4.2689 18.0986 4.19913 17.9717 4.09821C17.8477 3.99961 17.8092 3.89368 17.8092 3.81512V0.953779C17.8092 0.875217 17.8477 0.769289 17.9717 0.670685C18.0986 0.569765 18.2906 0.5 18.5085 0.5C18.7263 0.5 18.9184 0.569766 19.0453 0.670685C19.1692 0.769289 19.2077 0.875217 19.2077 0.953779V3.81512C19.2077 3.89368 19.1692 3.99961 19.0453 4.09821Z" stroke="black"/>
<path d="M25.7038 8.58417C25.7038 8.83712 25.8302 9.07972 26.0551 9.25859C26.28 9.43746 26.585 9.53795 26.9031 9.53795H30.5009C30.8189 9.53795 31.124 9.43746 31.3489 9.25859C31.5738 9.07972 31.7001 8.83712 31.7001 8.58417C31.7001 8.33121 31.5738 8.08861 31.3489 7.90974C31.124 7.73088 30.8189 7.63039 30.5009 7.63039H26.9031C26.585 7.63039 26.28 7.73088 26.0551 7.90974C25.8302 8.08861 25.7038 8.33121 25.7038 8.58417ZM6.51567 9.53795H10.1134C10.4315 9.53795 10.7366 9.43746 10.9615 9.25859C11.1864 9.07972 11.3127 8.83712 11.3127 8.58417C11.3127 8.33121 11.1864 8.08861 10.9615 7.90974C10.7366 7.73088 10.4315 7.63039 10.1134 7.63039H6.51567C6.1976 7.63039 5.89257 7.73088 5.66766 7.90974C5.44276 8.08861 5.31641 8.33121 5.31641 8.58417C5.31641 8.83712 5.44276 9.07972 5.66766 9.25859C5.89257 9.43746 6.1976 9.53795 6.51567 9.53795ZM11.6605 5.44623C11.772 5.53563 11.9046 5.60658 12.0508 5.65501C12.1969 5.70343 12.3537 5.72836 12.512 5.72836C12.6703 5.72836 12.827 5.70343 12.9732 5.65501C13.1193 5.60658 13.252 5.53563 13.3634 5.44623C13.4758 5.35757 13.5651 5.25208 13.626 5.13585C13.6868 5.01962 13.7182 4.89496 13.7182 4.76905C13.7182 4.64314 13.6868 4.51847 13.626 4.40225C13.5651 4.28602 13.4758 4.18053 13.3634 4.09187L10.9649 2.18431C10.8531 2.09538 10.7204 2.02484 10.5743 1.97671C10.4282 1.92858 10.2716 1.90381 10.1134 1.90381C9.79408 1.90381 9.4878 2.00471 9.26198 2.18431C9.03615 2.36391 8.90928 2.6075 8.90928 2.86149C8.90928 3.11548 9.03615 3.35907 9.26198 3.53867L11.6605 5.44623ZM24.5046 5.72283C24.6624 5.72355 24.8189 5.69949 24.965 5.65203C25.1111 5.60457 25.244 5.53463 25.3561 5.44623L27.7546 3.53867C27.8664 3.44975 27.9551 3.34417 28.0156 3.22798C28.0761 3.11179 28.1073 2.98726 28.1073 2.86149C28.1073 2.73573 28.0761 2.61119 28.0156 2.495C27.9551 2.37881 27.8664 2.27324 27.7546 2.18431C27.6428 2.09538 27.51 2.02484 27.3639 1.97671C27.2178 1.92858 27.0612 1.90381 26.9031 1.90381C26.745 1.90381 26.5884 1.92858 26.4423 1.97671C26.2962 2.02484 26.1634 2.09538 26.0516 2.18431L23.6531 4.09187C23.5407 4.18053 23.4515 4.28602 23.3906 4.40225C23.3297 4.51847 23.2984 4.64314 23.2984 4.76905C23.2984 4.89496 23.3297 5.01962 23.3906 5.13585C23.4515 5.25208 23.5407 5.35757 23.6531 5.44623C23.7652 5.53463 23.8981 5.60457 24.0442 5.65203C24.1903 5.69949 24.3467 5.72355 24.5046 5.72283Z" fill="black"/>
</svg>
