<svg viewBox="0 0 401 400" fill="none" xmlns="http://www.w3.org/2000/svg">
  <path d="M200.989 120.002C156.876 120.002 120.989 155.889 120.989 200.002C120.989 244.115 156.876 280.002 200.989 280.002C245.103 280.002 280.989 244.115 280.989 200.002C280.989 155.889 245.103 120.002 200.989 120.002ZM200.989 140.002C204.669 140.002 207.656 142.989 207.656 146.668C207.656 150.348 204.669 153.335 200.989 153.335C197.31 153.335 194.323 150.348 194.323 146.668C194.323 142.989 197.309 140.002 200.989 140.002ZM147.656 206.668C143.976 206.668 140.989 203.682 140.989 200.002C140.989 196.322 143.976 193.336 147.656 193.336C151.335 193.336 154.322 196.322 154.322 200.002C154.322 203.682 151.335 206.668 147.656 206.668ZM167.989 242.429C165.389 245.029 161.169 245.029 158.563 242.429C155.963 239.821 155.963 235.602 158.563 233.002C161.17 230.395 165.389 230.395 167.989 233.002C170.596 235.602 170.596 239.821 167.989 242.429ZM167.989 167.002C165.389 169.609 161.169 169.609 158.563 167.002C155.963 164.402 155.963 160.182 158.563 157.575C161.17 154.969 165.389 154.969 167.989 157.575C170.596 160.182 170.596 164.402 167.989 167.002ZM200.989 260.002C197.31 260.002 194.323 257.015 194.323 253.336C194.323 249.656 197.31 246.669 200.989 246.669C204.669 246.669 207.656 249.656 207.656 253.336C207.656 257.015 204.669 260.002 200.989 260.002ZM200.989 226.668C186.282 226.668 174.323 214.708 174.323 200.002C174.323 185.295 186.283 173.336 200.989 173.336C215.696 173.336 227.656 185.296 227.656 200.002C227.656 214.708 215.696 226.668 200.989 226.668ZM243.416 242.429C240.809 245.029 236.589 245.029 233.989 242.429C231.382 239.821 231.382 235.602 233.989 233.002C236.589 230.395 240.81 230.395 243.416 233.002C246.016 235.602 246.016 239.821 243.416 242.429ZM243.416 167.002C240.809 169.609 236.589 169.609 233.989 167.002C231.382 164.402 231.382 160.182 233.989 157.575C236.589 154.969 240.81 154.969 243.416 157.575C246.016 160.182 246.016 164.402 243.416 167.002ZM260.989 200.002C260.989 203.682 258.003 206.668 254.323 206.668C250.643 206.668 247.656 203.682 247.656 200.002C247.656 196.322 250.643 193.336 254.323 193.336C258.003 193.336 260.989 196.321 260.989 200.002Z" fill="white" />
  <path d="M387.901 203.048C385.734 202.588 385.414 200.941 385.414 200.002C385.414 199.062 385.734 197.415 387.901 196.955C396.321 195.195 401.787 187.708 400.894 179.168C400.001 170.621 393.114 164.428 384.46 164.428H384.44H384.433C382.219 164.428 381.559 162.881 381.373 161.955C381.173 161.034 381.152 159.362 383.18 158.468C391.046 155.002 394.846 146.555 392.213 138.381C389.573 130.202 381.54 125.581 372.947 127.374C370.773 127.848 369.807 126.448 369.42 125.581C369.041 124.721 368.673 123.095 370.534 121.761C377.507 116.748 379.467 107.701 375.207 100.254C370.92 92.7805 362.1 89.8805 353.927 93.5203C351.901 94.407 350.661 93.2602 350.101 92.4867C349.554 91.7266 348.854 90.2133 350.487 88.4203C356.261 82.0734 356.301 72.8273 350.587 66.4273C344.854 60.007 335.627 59.007 328.241 64.3406C326.433 65.6539 324.987 64.7609 324.274 64.1203C323.581 63.4867 322.581 62.1539 323.881 59.9273C328.208 52.5141 326.321 43.4609 319.394 38.3875C312.448 33.2945 303.215 34.2344 297.001 41.1008C295.515 42.7406 293.908 42.1805 293.081 41.7008C292.268 41.2344 291.008 40.1273 291.868 37.5211C294.548 29.3742 290.808 20.9078 282.975 17.3945C275.135 13.8742 266.288 16.7078 261.968 24.1547L261.588 24.8078C260.475 26.7141 258.795 26.5008 257.888 26.2078C256.995 25.9148 255.528 25.1008 255.755 22.9211L255.834 22.2211C256.748 13.6945 251.314 6.20078 242.914 4.40078C234.521 2.61406 226.467 7.22109 223.794 15.3938L223.547 16.1539C222.867 18.2406 221.18 18.3875 220.234 18.2938C219.294 18.1938 217.673 17.7008 217.447 15.5336L217.367 14.7336C216.474 6.19375 209.587 0 200.987 0C192.387 0 185.501 6.19297 184.608 14.7398L184.528 15.5195C184.301 17.6992 182.681 18.193 181.741 18.293C180.801 18.393 179.108 18.2398 178.428 16.1594L178.175 15.3859C175.508 7.21953 167.448 2.60625 159.062 4.39922C150.662 6.19922 145.228 13.6922 146.141 22.2195L146.221 22.9266C146.448 25.1 144.981 25.9133 144.087 26.2062C143.18 26.5062 141.494 26.7195 140.394 24.8195L140.001 24.1461C135.681 16.7125 126.848 13.8727 119.001 17.393C111.168 20.9063 107.428 29.3727 110.288 38.0531C110.968 40.1266 109.709 41.2328 108.895 41.7C108.069 42.1867 106.462 42.7469 104.535 40.6133C98.7616 34.2469 89.528 33.3 82.5819 38.3867C75.6554 43.4602 73.7687 52.5133 78.2952 60.2664C79.3952 62.1531 78.3952 63.4867 77.7022 64.1195C76.9819 64.7594 75.5288 65.6328 73.3358 64.0461C66.3491 58.9992 57.1226 60.0063 51.389 66.4258C45.6757 72.8258 45.7155 82.0727 51.6491 88.5992C53.1226 90.2125 52.4226 91.7258 51.8757 92.4859C51.3155 93.2523 50.0687 94.4125 47.7491 93.3859C39.8757 89.893 31.0491 92.7859 26.7694 100.252C22.5093 107.699 24.4694 116.745 31.5226 121.812C33.3022 123.092 32.9358 124.72 32.5562 125.579C32.1694 126.445 31.196 127.826 28.8632 127.339C20.4366 125.546 12.403 130.199 9.76318 138.379C7.12959 146.552 10.9296 154.999 18.8101 158.472C20.8233 159.359 20.803 161.032 20.603 161.952C20.4163 162.878 19.7562 164.425 17.4897 164.425H17.4827C8.78272 164.172 1.97568 170.618 1.08272 179.165C0.189747 187.705 5.65615 195.191 14.0757 196.952C16.2421 197.412 16.5624 199.059 16.5624 199.998C16.5624 200.938 16.2421 202.585 14.0757 203.045C5.65537 204.805 0.188965 212.292 1.08272 220.832C1.97568 229.379 8.8624 235.572 17.5163 235.572H17.5366H17.5437C19.7569 235.572 20.4171 237.119 20.6038 238.045C20.8038 238.966 20.8241 240.638 18.7968 241.532C10.9304 244.998 7.13037 253.445 9.76318 261.619C12.403 269.798 20.4366 274.426 29.0296 272.626C31.2296 272.159 32.1694 273.552 32.5562 274.419C32.9358 275.279 33.303 276.905 31.4429 278.239C24.4694 283.252 22.5093 292.299 26.7694 299.746C31.0491 307.212 39.8694 310.099 48.0491 306.48C50.0562 305.58 51.3155 306.74 51.8757 307.513C52.4226 308.273 53.1226 309.787 51.489 311.58C45.7155 317.927 45.6757 327.173 51.389 333.573C57.1226 339.993 66.3554 341.006 73.7358 335.659C75.5491 334.359 77.0022 335.246 77.7022 335.88C78.396 336.513 79.3952 337.846 78.0952 340.073C73.7686 347.486 75.6554 356.539 82.5819 361.613C89.5218 366.699 98.7616 365.766 104.976 358.899C106.462 357.252 108.069 357.812 108.896 358.299C109.709 358.766 110.969 359.873 110.109 362.479C107.43 370.626 111.169 379.092 119.002 382.605C126.849 386.126 135.689 383.292 140.009 375.845L140.389 375.192C141.496 373.285 143.169 373.485 144.089 373.792C144.982 374.085 146.449 374.899 146.223 377.079L146.143 377.779C145.23 386.305 150.663 393.799 159.063 395.599C167.463 397.399 175.516 392.779 178.183 384.606L178.43 383.846C179.11 381.759 180.797 381.62 181.744 381.706C182.684 381.806 184.304 382.3 184.53 384.466L184.61 385.266C185.503 393.806 192.39 400 200.99 400C209.59 400 216.476 393.807 217.369 385.26L217.449 384.48C217.676 382.301 219.296 381.807 220.236 381.707C221.189 381.627 222.869 381.76 223.549 383.841L223.802 384.614C226.462 392.78 234.502 397.387 242.916 395.601C251.316 393.801 256.749 386.307 255.836 377.78L255.756 377.073C255.53 374.9 256.996 374.087 257.89 373.794C258.803 373.501 260.49 373.287 261.583 375.18L261.976 375.854C266.289 383.287 275.136 386.127 282.976 382.607C290.809 379.094 294.549 370.627 291.689 361.947C291.009 359.873 292.269 358.767 293.082 358.3C293.909 357.813 295.516 357.253 297.442 359.387C303.208 365.76 312.455 366.7 319.395 361.613C326.322 356.54 328.209 347.487 323.682 339.734C322.582 337.847 323.582 336.513 324.275 335.88C324.988 335.241 326.441 334.367 328.641 335.954C335.628 341.001 344.855 339.994 350.588 333.574C356.301 327.174 356.262 317.927 350.328 311.401C348.855 309.787 349.555 308.274 350.101 307.514C350.655 306.741 351.894 305.58 354.228 306.614C362.101 310.107 370.928 307.221 375.208 299.748C379.468 292.301 377.508 283.254 370.455 278.187C368.675 276.908 369.041 275.28 369.421 274.421C369.808 273.555 370.774 272.168 373.114 272.661C381.541 274.454 389.574 269.801 392.214 261.621C394.848 253.448 391.048 245.001 383.167 241.528C381.154 240.641 381.174 238.968 381.374 238.048C381.561 237.122 382.221 235.575 384.487 235.575C384.48 235.575 384.501 235.575 384.514 235.575C393.114 235.575 400.001 229.382 400.894 220.835C401.787 212.295 396.32 204.809 387.901 203.048ZM200.987 293.335C149.521 293.335 107.654 251.469 107.654 200.002C107.654 148.535 149.52 106.668 200.987 106.668C252.454 106.668 294.321 148.534 294.321 200.002C294.32 251.469 252.454 293.335 200.987 293.335Z" fill="white" />
  <path d="M200.989 186.668C193.636 186.668 187.655 192.648 187.655 200.002C187.655 207.355 193.635 213.335 200.989 213.335C208.342 213.335 214.322 207.355 214.322 200.002C214.322 192.648 208.342 186.668 200.989 186.668Z" fill="white" />
</svg>