<svg viewBox="0 0 409 400" fill="none" xmlns="http://www.w3.org/2000/svg">
  <path d="M230.83 312.569V400.001L204.935 374.106L179.041 400V312.567C186.842 316.44 195.638 318.617 204.935 318.617C214.232 318.617 223.029 316.441 230.83 312.569ZM371.395 37.4849V259.434H263.291C262.855 227.582 236.896 201.891 204.935 201.891C172.974 201.891 147.014 227.58 146.579 259.434H38.4736V37.4849H371.395Z" fill="white" />
  <path d="M400.989 0H8.88076C6.78781 0 4.78057 0.831424 3.30063 2.31137C1.82068 3.79131 0.989258 5.79855 0.989258 7.89151V289.026C0.989258 293.385 4.5215 296.917 8.88076 296.917H149.747C156.188 306.633 165.084 314.472 175.534 319.638C184.722 324.199 194.614 326.511 204.935 326.511C215.256 326.511 225.149 324.199 234.333 319.641C244.784 314.474 253.681 306.634 260.123 296.917H400.989C405.349 296.917 408.88 293.385 408.88 289.026V7.89151C408.88 3.53224 405.349 0 400.989 0ZM227.322 305.5C220.332 308.968 212.8 310.728 204.937 310.728C197.071 310.728 189.541 308.968 182.549 305.497C173.492 301.021 165.99 293.925 161.016 285.132L161.014 285.128C157.802 279.461 155.721 273.225 154.886 266.766C154.606 264.607 154.466 262.432 154.466 260.255C154.466 260.061 154.465 259.864 154.471 259.671L154.474 259.539C154.847 232.102 177.488 209.782 204.938 209.782C208.371 209.782 211.726 210.129 214.973 210.795C237.702 215.441 255.074 235.533 255.404 259.539L255.406 259.671C255.412 259.864 255.411 260.061 255.411 260.255C255.415 268.974 253.157 277.546 248.858 285.133C243.883 293.927 236.38 301.023 227.322 305.5ZM393.097 281.134H267.821C267.857 281.025 267.887 280.915 267.923 280.805C268.133 280.162 268.335 279.513 268.523 278.865C268.598 278.61 268.667 278.353 268.739 278.097C268.889 277.56 269.032 277.021 269.169 276.481C269.235 276.208 269.305 275.937 269.368 275.666C269.503 275.101 269.629 274.532 269.749 273.963C269.797 273.734 269.85 273.504 269.895 273.276C270.055 272.477 270.203 271.677 270.334 270.874C270.344 270.814 270.351 270.76 270.358 270.701C270.476 269.958 270.581 269.213 270.675 268.466C270.706 268.211 270.734 267.957 270.761 267.699C270.859 266.855 270.938 266.009 271 265.162C271.041 264.594 271.075 264.025 271.103 263.456C271.116 263.204 271.13 262.951 271.14 262.696C271.17 261.882 271.187 261.067 271.189 260.252C271.189 259.925 271.188 259.586 271.179 259.259C271.165 258.424 271.121 257.596 271.078 256.77C271.062 256.485 271.062 256.194 271.045 255.911C270.974 254.835 270.876 253.76 270.753 252.688C270.748 252.66 270.747 252.629 270.744 252.601C270.621 251.559 270.474 250.521 270.302 249.486C270.293 249.437 270.287 249.386 270.28 249.336C269.922 247.203 269.458 245.089 268.89 243.002L268.883 242.971C268.318 240.9 267.652 238.858 266.888 236.852L266.886 236.846C265.002 231.916 262.536 227.228 259.54 222.882C259.52 222.854 259.505 222.825 259.485 222.798C259.029 222.139 258.551 221.498 258.074 220.854C257.92 220.651 257.779 220.438 257.623 220.236C257.077 219.526 256.518 218.828 255.944 218.14C255.843 218.02 255.749 217.893 255.648 217.771C255.16 217.195 254.661 216.629 254.151 216.073C253.953 215.851 253.763 215.619 253.559 215.399C253.08 214.883 252.58 214.382 252.086 213.88C251.846 213.635 251.61 213.376 251.363 213.133C250.706 212.491 250.037 211.862 249.356 211.246C249.256 211.156 249.161 211.059 249.064 210.971C248.515 210.479 247.95 210.009 247.387 209.537C247.144 209.333 246.91 209.12 246.663 208.918C246.327 208.642 245.973 208.383 245.63 208.114C245.144 207.733 244.664 207.346 244.169 206.977C244.06 206.9 243.951 206.826 243.842 206.749C242.247 205.58 240.6 204.482 238.908 203.458C238.442 203.177 237.962 202.917 237.486 202.648C237.04 202.394 236.601 202.129 236.149 201.885C235.853 201.726 235.548 201.583 235.25 201.427C233.69 200.609 232.097 199.855 230.475 199.166C229.519 198.763 228.554 198.383 227.58 198.025C227.526 198.005 227.474 197.983 227.423 197.963C227.02 197.816 226.61 197.691 226.202 197.552C224.577 196.989 222.931 196.489 221.266 196.055L221.241 196.049C220.2 195.782 219.153 195.541 218.1 195.325C218.039 195.313 217.977 195.304 217.916 195.293C216.609 195.03 215.286 194.817 213.953 194.633C212.37 194.414 210.78 194.253 209.186 194.151C207.771 194.054 206.354 194.003 204.935 193.997C203.365 193.997 201.812 194.073 200.269 194.183C199.359 194.247 198.452 194.324 197.551 194.425C172.732 197.221 151.878 213.918 143.118 236.513C143.075 236.622 143.027 236.731 142.984 236.841C142.65 237.725 142.335 238.617 142.039 239.515C141.999 239.636 141.952 239.753 141.913 239.873C141.65 240.694 141.403 241.519 141.172 242.349C141.113 242.555 141.042 242.761 140.986 242.97C140.782 243.72 140.605 244.481 140.427 245.241C140.359 245.535 140.274 245.827 140.209 246.125C140.073 246.743 139.966 247.372 139.847 247.994C139.762 248.443 139.663 248.887 139.587 249.336C139.5 249.858 139.438 250.388 139.363 250.914C139.282 251.475 139.19 252.033 139.123 252.6C139.074 253.019 139.049 253.447 139.008 253.869C138.941 254.548 138.867 255.225 138.822 255.91C138.802 256.195 138.801 256.481 138.788 256.765C138.744 257.595 138.7 258.423 138.688 259.258C138.678 259.587 138.677 259.925 138.677 260.251C138.677 261.067 138.697 261.883 138.727 262.695C138.737 262.948 138.751 263.202 138.763 263.455C138.831 264.869 138.945 266.281 139.104 267.687C139.134 267.948 139.16 268.209 139.193 268.469C139.283 269.197 139.387 269.927 139.501 270.653L139.534 270.878C139.665 271.677 139.81 272.473 139.969 273.267C140.017 273.506 140.07 273.74 140.121 273.976C140.24 274.539 140.364 275.102 140.497 275.662C140.563 275.938 140.631 276.21 140.698 276.485C140.836 277.027 140.979 277.562 141.129 278.1C141.199 278.353 141.269 278.608 141.343 278.863C141.539 279.528 141.742 280.19 141.957 280.847C141.987 280.944 142.014 281.041 142.045 281.134H16.7723V15.783H393.097V281.134Z" fill="white" />
  <path d="M97.6601 82.3694H312.209C316.569 82.3694 320.101 78.8361 320.101 74.4779C320.101 70.1197 316.569 66.5864 312.209 66.5864H97.6601C95.5671 66.5864 93.5599 67.4179 92.0799 68.8978C90.6 70.3777 89.7686 72.385 89.7686 74.4779C89.7686 76.5709 90.6 78.5781 92.0799 80.0581C93.5599 81.538 95.5671 82.3694 97.6601 82.3694ZM97.6601 126.759H312.209C316.569 126.759 320.101 123.225 320.101 118.867C320.101 114.509 316.569 110.976 312.209 110.976H97.6601C95.5671 110.976 93.5599 111.807 92.0799 113.287C90.6 114.767 89.7686 116.774 89.7686 118.867C89.7686 120.96 90.6 122.967 92.0799 124.447C93.5599 125.927 95.5671 126.759 97.6601 126.759ZM271.519 155.366H138.351C136.258 155.366 134.251 156.197 132.771 157.677C131.291 159.157 130.459 161.164 130.459 163.257C130.459 165.35 131.291 167.358 132.771 168.838C134.251 170.317 136.258 171.149 138.351 171.149H271.521C273.591 171.115 275.565 170.269 277.018 168.792C278.47 167.316 279.284 165.328 279.284 163.257C279.284 161.186 278.469 159.198 277.017 157.722C275.565 156.246 273.59 155.4 271.519 155.366Z" fill="white" />
  <path d="M191.093 291.627C190.057 291.628 189.03 291.425 188.073 291.028C187.115 290.632 186.245 290.051 185.513 289.317L167.017 270.822C165.563 269.337 164.754 267.338 164.765 265.259C164.776 263.181 165.606 261.191 167.076 259.721C168.545 258.251 170.535 257.421 172.613 257.409C174.692 257.398 176.691 258.207 178.176 259.661L191.092 272.577L229.899 233.766C230.631 233.028 231.501 232.442 232.46 232.041C233.418 231.64 234.447 231.433 235.486 231.43C236.525 231.428 237.555 231.631 238.515 232.027C239.476 232.424 240.349 233.006 241.084 233.741C241.819 234.476 242.401 235.349 242.798 236.309C243.194 237.27 243.398 238.299 243.395 239.339C243.393 240.378 243.186 241.406 242.785 242.365C242.384 243.324 241.798 244.194 241.06 244.926L196.67 289.316C195.938 290.05 195.069 290.632 194.112 291.028C193.155 291.425 192.129 291.628 191.093 291.627Z" fill="white" />
</svg>