<svg viewBox="0 0 323 400" fill="none" xmlns="http://www.w3.org/2000/svg">
  <path d="M315.013 32.9774C312.678 31.0973 309.95 29.7619 307.028 29.0695C304.107 28.377 301.066 28.3452 298.131 28.9762C276.655 33.4565 254.485 33.5135 232.986 29.1439C211.487 24.7743 191.114 16.0704 173.121 3.56823C169.757 1.24495 165.76 0 161.665 0C157.571 0 153.574 1.24495 150.209 3.56823C132.217 16.0704 111.844 24.7743 90.3446 29.1439C68.8456 33.5135 46.6756 33.4565 25.1996 28.9762C22.264 28.3452 19.2237 28.377 16.3022 29.0695C13.3807 29.7619 10.6521 31.0973 8.31724 32.9774C5.98546 34.8604 4.10713 37.2395 2.82028 39.9399C1.53343 42.6404 0.870766 45.5935 0.880976 48.5823V197.629C0.863108 226.313 7.72984 254.586 20.9094 280.094C34.0889 305.602 53.1997 327.606 76.6505 344.275L150.008 396.291C153.412 398.704 157.487 400 161.665 400C165.844 400 169.918 398.704 173.322 396.291L246.68 344.275C270.131 327.606 289.241 305.602 302.421 280.094C315.601 254.586 322.467 226.313 322.449 197.629V48.5823C322.46 45.5935 321.797 42.6404 320.51 39.9399C319.223 37.2395 317.345 34.8604 315.013 32.9774ZM282.253 197.629C282.269 219.931 276.933 241.914 266.69 261.749C256.448 281.584 241.594 298.698 223.366 311.665L161.665 355.478L99.9642 311.665C81.7361 298.698 66.8826 281.584 56.6399 261.749C46.3972 241.914 41.0616 219.931 41.077 197.629V71.5895C83.2111 75.1793 125.409 65.4481 161.665 43.7808C197.921 65.4481 240.119 75.1793 282.253 71.5895V197.629ZM192.616 151.815L138.552 205.832L120.665 187.826C116.881 184.059 111.748 181.942 106.396 181.942C101.043 181.942 95.9105 184.059 92.126 187.826C88.3415 191.593 86.2154 196.703 86.2154 202.03C86.2154 207.358 88.3415 212.468 92.126 216.235L124.283 248.245C126.151 250.12 128.374 251.608 130.823 252.624C133.272 253.64 135.899 254.163 138.552 254.163C141.206 254.163 143.833 253.64 146.282 252.624C148.731 251.608 150.954 250.12 152.822 248.245L221.959 180.023C225.744 176.256 227.87 171.147 227.87 165.819C227.87 160.491 225.744 155.382 221.959 151.615C218.175 147.847 213.042 145.731 207.69 145.731C202.338 145.731 197.205 147.847 193.42 151.615L192.616 151.815Z" fill="white" />
</svg>