<svg viewBox="0 0 400 400" fill="none" xmlns="http://www.w3.org/2000/svg">
  <path d="M384.917 157.083L366.833 139L349.417 121.583L337.667 109.833L290.25 62.4167L335.583 17.0833C337.667 14.9167 338.5 11.8333 337.75 9C337.387 7.57306 336.645 6.27045 335.604 5.22924C334.563 4.18803 333.26 3.44673 331.833 3.08333C324.083 0.999999 316.083 0 308 0C283.5 0 260.333 9.58333 243 26.9167C228.333 41.5833 219.25 60.25 216.75 80.8333C212.917 112.583 196.917 144 171.667 169.25L12.25 328.667C4.41667 336.5 0 347 0 358.167C0 369.333 4.41667 379.833 12.25 387.75C20.1667 395.667 30.6667 400 41.8333 400C53 400 63.5 395.667 71.4167 387.75L246.5 212.667C253.417 205.667 262.667 201.833 272.583 201.833C282.417 201.833 291.667 205.667 298.667 212.667C310 224 329.75 224 341.083 212.667L384.917 168.833C385.709 168.073 386.339 167.161 386.769 166.152C387.2 165.142 387.422 164.056 387.422 162.958C387.422 161.861 387.2 160.775 386.769 159.765C386.339 158.755 385.709 157.843 384.917 157.083ZM329.333 200.917C324.25 205.917 315.5 205.917 310.417 200.917C305.471 195.912 299.579 191.942 293.084 189.238C286.588 186.534 279.619 185.15 272.583 185.167C258.25 185.167 244.833 190.75 234.667 200.917L59.5833 376C50.0833 385.417 33.5833 385.417 24.0833 376C21.7456 373.664 19.891 370.891 18.6257 367.838C17.3604 364.785 16.7091 361.513 16.7091 358.208C16.7091 354.904 17.3604 351.631 18.6257 348.579C19.891 345.526 21.7456 342.752 24.0833 340.417L183.5 181C211.333 153.167 229 118.333 233.333 82.8333C235.288 66.1173 242.835 50.5527 254.75 38.6667C261.741 31.6749 270.043 26.1323 279.181 22.357C288.319 18.5817 298.113 16.6479 308 16.6667C309.5 16.6667 310.917 16.6667 312.333 16.75L272.583 56.5C271.811 57.2709 271.198 58.1867 270.78 59.1948C270.362 60.2029 270.146 61.2836 270.146 62.375C270.146 63.4664 270.362 64.5471 270.78 65.5552C271.198 66.5633 271.811 67.479 272.583 68.25L331.75 127.417L361.333 157L367.25 163L329.333 200.917Z" fill="white" />
  <path d="M361.333 157.001L331.75 127.417L272.583 68.2508C271.811 67.4799 271.198 66.5641 270.78 65.556C270.361 64.5479 270.146 63.4672 270.146 62.3758C270.146 61.2844 270.361 60.2037 270.78 59.1956C271.198 58.1875 271.811 57.2718 272.583 56.5008L312.333 16.7508C310.916 16.6675 309.5 16.6675 308 16.6675C287.916 16.6675 269 24.5008 254.75 38.6675C242.835 50.5535 235.287 66.1181 233.333 82.8341C229 118.334 211.333 153.167 183.5 181.001L24.0832 340.417C21.7454 342.753 19.8909 345.527 18.6256 348.579C17.3603 351.632 16.709 354.905 16.709 358.209C16.709 361.514 17.3603 364.786 18.6256 367.839C19.8909 370.892 21.7454 373.665 24.0832 376.001C33.5832 385.417 50.0832 385.417 59.5832 376.001L234.667 200.917C239.628 195.911 245.535 191.941 252.044 189.237C258.553 186.534 265.535 185.15 272.583 185.167C286.833 185.167 300.333 190.751 310.417 200.917C315.5 205.917 324.25 205.917 329.333 200.917L367.25 163.001L361.333 157.001ZM52.3332 359.417C50.8332 361.001 48.6665 361.834 46.4998 361.834C44.2498 361.834 42.0832 361.001 40.5832 359.417C39.8005 358.646 39.1827 357.724 38.7673 356.707C38.3519 355.69 38.1475 354.599 38.1665 353.501C38.1665 351.334 38.9998 349.167 40.5832 347.667C43.6665 344.584 49.2498 344.584 52.3332 347.667C53.1262 348.427 53.7574 349.339 54.1885 350.348C54.6197 351.358 54.842 352.445 54.842 353.542C54.842 354.64 54.6197 355.727 54.1885 356.737C53.7574 357.746 53.1262 358.658 52.3332 359.417ZM319.916 151.084L296.25 174.751C294.583 176.334 292.417 177.167 290.333 177.167C288.167 177.167 286.083 176.334 284.417 174.751L248.917 139.251C247.417 137.667 246.5 135.584 246.5 133.334C246.5 131.167 247.417 129.001 248.917 127.501L272.583 103.834C273.355 103.047 274.275 102.42 275.291 101.991C276.307 101.562 277.397 101.339 278.5 101.334C280.666 101.334 282.833 102.251 284.417 103.834L319.916 139.251C321.416 140.834 322.333 143.001 322.333 145.167C322.333 147.417 321.416 149.501 319.916 151.084Z" fill="white" />
  <path d="M319.92 139.251L284.42 103.834C282.836 102.251 280.67 101.334 278.503 101.334C277.4 101.339 276.31 101.562 275.294 101.991C274.278 102.42 273.358 103.047 272.586 103.834L248.92 127.501C247.42 129.001 246.503 131.167 246.503 133.334C246.503 135.584 247.42 137.667 248.92 139.251L284.42 174.751C286.086 176.334 288.17 177.167 290.336 177.167C292.42 177.167 294.586 176.334 296.253 174.751L319.92 151.084C321.42 149.501 322.336 147.417 322.336 145.167C322.336 143.001 321.42 140.834 319.92 139.251ZM290.336 157.084L266.586 133.334L278.503 121.501L302.17 145.167L290.336 157.084Z" fill="#254996" />
  <path d="M302.168 145.168L290.335 157.084L266.585 133.334L278.502 121.501L302.168 145.168Z" fill="white" />
  <path d="M54.8378 353.499C54.8332 354.601 54.6099 355.692 54.1808 356.708C53.7516 357.723 53.1252 358.644 52.3378 359.416C50.8378 360.999 48.6711 361.832 46.5045 361.832C44.2545 361.832 42.0878 360.999 40.5878 359.416C39.8052 358.644 39.1874 357.722 38.7719 356.705C38.3565 355.688 38.1521 354.597 38.1711 353.499C38.1711 351.332 39.0045 349.166 40.5878 347.666C43.6711 344.582 49.2545 344.582 52.3378 347.666C53.9211 349.166 54.8378 351.332 54.8378 353.499Z" fill="#254996" />
  <path d="M366.835 138.998L349.418 121.581L383.251 87.7476C384.251 106.164 378.501 124.498 366.835 138.998Z" fill="#254996" />
  <path d="M378.668 150.836C376.918 153.003 375.084 155.003 373.084 157.003C372.325 157.796 371.413 158.427 370.403 158.858C369.394 159.289 368.307 159.511 367.209 159.511C366.111 159.511 365.025 159.289 364.015 158.858C363.005 158.427 362.093 157.796 361.334 157.003C360.562 156.232 359.949 155.316 359.531 154.308C359.112 153.3 358.897 152.219 358.897 151.128C358.897 150.036 359.112 148.956 359.531 147.947C359.949 146.939 360.562 146.024 361.334 145.253C363.334 143.253 365.168 141.169 366.834 139.003C378.433 124.525 384.278 106.275 383.251 87.7527L349.418 121.586L343.501 127.419C342.729 128.191 341.813 128.803 340.805 129.22C339.797 129.638 338.717 129.853 337.626 129.853C336.535 129.853 335.454 129.638 334.446 129.22C333.438 128.803 332.522 128.191 331.751 127.419C330.979 126.648 330.367 125.732 329.95 124.724C329.532 123.716 329.317 122.635 329.317 121.544C329.317 120.453 329.532 119.373 329.95 118.365C330.367 117.357 330.979 116.441 331.751 115.669L337.668 109.836L383.001 64.4194C384.037 63.3915 385.324 62.6537 386.735 62.2797C388.146 61.9058 389.63 61.9088 391.039 62.2885C392.448 62.6681 393.732 63.4112 394.764 64.4432C395.796 65.4753 396.538 66.7602 396.918 68.1694C404.584 97.1694 397.668 128.086 378.668 150.836Z" fill="white" />
</svg>