<svg viewBox="0 0 147 157" fill="none" xmlns="http://www.w3.org/2000/svg">
  <path d="M73.7214 0.902832C54.3248 0.925937 35.7289 9.14477 22.0135 23.7562C8.29806 38.3676 0.583211 58.1783 0.561523 78.8419C0.594022 99.502 8.31235 119.306 22.0254 133.915C35.7385 148.524 54.3281 156.746 73.7214 156.781C93.1245 156.781 111.733 148.57 125.453 133.953C139.173 119.337 146.881 99.5127 146.881 78.8419C146.881 58.1712 139.173 38.3471 125.453 23.7307C111.733 9.11425 93.1245 0.902832 73.7214 0.902832ZM118.22 123.816C114.111 114.987 107.768 107.557 99.9065 102.364C92.0449 97.1716 82.9774 94.4228 73.7273 94.4279C64.4772 94.4331 55.4125 97.1921 47.5559 102.394C39.6994 107.595 33.3636 115.032 29.2636 123.866C18.3242 111.779 12.2287 95.6319 12.2671 78.8419C12.2671 61.4785 18.7417 44.8263 30.2666 32.5485C41.7915 20.2707 57.4227 13.3731 73.7214 13.3731C90.02 13.3731 105.651 20.2707 117.176 32.5485C128.701 44.8263 135.176 61.4785 135.176 78.8419C135.212 95.6085 129.133 111.734 118.22 123.816ZM73.7214 32.0785C68.5123 32.0785 63.4202 33.7241 59.089 36.8071C54.7578 39.8902 51.3821 44.2722 49.3886 49.3992C47.3952 54.5261 46.8736 60.1677 47.8899 65.6104C48.9061 71.0531 51.4145 76.0526 55.0979 79.9766C58.7813 83.9006 63.4742 86.5729 68.5832 87.6555C73.6921 88.7381 78.9877 88.1825 83.8003 86.0588C88.6128 83.9352 92.7262 80.3389 95.6202 75.7248C98.5142 71.1107 100.059 65.6859 100.059 60.1366C100.059 56.4519 99.3776 52.8034 98.0541 49.3992C96.7305 45.995 94.7905 42.9019 92.3448 40.2965C89.8991 37.6911 86.9957 35.6243 83.8003 34.2143C80.6049 32.8042 77.18 32.0785 73.7214 32.0785Z" fill="white" />
</svg>